<?xml version="1.0" encoding="UTF-8" standalone="no"?>
<svg
   viewBox="0 0 704.10708 446.67285"
   version="1.1"
   id="svg1"
   width="704.10706"
   height="446.67285"
   xmlns="http://www.w3.org/2000/svg"
   xmlns:svg="http://www.w3.org/2000/svg">
  <defs
     id="defs1" />
  <g
     id="g79"
     transform="translate(1940.2696,-3300.8481)">
    <path
       id="path33"
       style="fill:#3399ff"
       d="m -1388.5915,3306.1433 c -11.7127,0.1041 -24.5262,12.7194 -24.5954,27.2818 l 0.2934,124.3541 c -0.2934,14.7827 13.441,23.5115 25.8853,23.428 l 124.1639,0.064 c 13.9666,0.018 26.7422,-12.4306 26.6657,-26.1336 l 0.016,-122.1194 c 0.056,-15.8678 -13.1478,-26.7418 -24.5664,-26.8754 h -63.9313 z m 128.1884,20.8515 c -46.3651,38.0526 -129.4758,106.6098 -131.6228,108.3915 v -101.6258 c 0.015,-3.242 2.0866,-6.3587 5.9981,-6.4819 z m 3.6182,24.0569 0.01,101.6352 c 0.033,4.4662 -2.636,7.7159 -7.1268,7.7334 l -125.5892,0.287 c 7.101,-5.4478 130.9186,-108.1685 132.7061,-109.6556 z" />
    <path
       id="path68"
       style="fill:#ffffff;"
       d="m -1936.1619,3300.8481 105.8728,181.2672 29.3281,0.069 104.617,-181.3358 h -40.9054 l -78.6024,138.7575 -81.4626,-138.6888 z m 259.6197,39.1104 c -13.7344,0 -27.4688,13.4722 -27.4686,26.9462 l -0.3032,83.6348 c 0,15.8858 13.8127,30.6421 28.8295,30.6934 l 114.9153,0.058 v -32.7541 l -110.1586,-0.2677 c -0.098,-6.9568 -0.1924,-13.9137 -0.287,-20.8707 h 110.4456 v -58.9523 c 0,-14.2484 -13.6037,-28.497 -27.2075,-28.4878 z m 5.55,33.0153 77.4012,0.2708 c 0.098,6.9557 0.1924,13.9116 0.287,20.8675 h -77.6884 z m 128.9162,-4.1693 c 0,-14.5677 15.4542,-29.1355 30.9084,-29.1353 l 81.3657,0.2883 v 32.7576 l -79.5165,0.2708 v 108.3048 h -32.7576 z" />
    <path
       id="text74"
       style="fill:#666666;"
       d="m -1876.9316,3614.1821 v 57.1954 h 52.7461 v -11.5196 h -41.1485 v -11.2793 h 33.125 v -11.5976 h -33.125 v -11.2813 h 41.1485 v -11.5176 z m 60.8476,0 v 57.1954 h 52.7461 v -11.5196 h -41.1484 v -11.2793 h 33.125 v -11.5976 h -33.125 v -11.2813 h 41.1484 v -11.5176 z m 164.4356,0 v 11.5176 h 22.8769 v 45.6778 h 11.5195 v -45.6778 h 22.7989 v -11.5176 z m 74.4316,0 c -2.1183,0 -4.0512,0.5287 -5.7988,1.5879 -1.6947,1.0062 -3.0718,2.3833 -4.1309,4.1309 -1.0062,1.6947 -1.5078,3.6024 -1.5078,5.7207 v 34.3164 c 0,2.1183 0.5016,4.0512 1.5078,5.7988 1.0591,1.6947 2.4362,3.0717 4.1309,4.1309 1.7476,1.0062 3.6805,1.5098 5.7988,1.5098 h 34.3184 c 2.0653,0 3.944,-0.5036 5.6386,-1.5098 1.7476,-1.0592 3.1518,-2.4362 4.211,-4.1309 1.0591,-1.7476 1.5879,-3.6805 1.5879,-5.7988 v -34.3164 c 0,-2.1183 -0.5288,-4.026 -1.5879,-5.7207 -1.0592,-1.7476 -2.4634,-3.1247 -4.211,-4.1309 -1.6946,-1.0592 -3.5733,-1.5879 -5.6386,-1.5879 z m 158.5566,0 v 57.1954 h 52.7461 v -11.5196 h -41.1484 v -11.2793 h 33.127 v -11.5976 h -33.127 v -11.2813 h 41.1484 v -11.5176 z m 60.8497,0 v 57.1954 h 52.746 v -11.5196 h -41.1484 v -11.2793 h 33.125 v -11.5976 h -33.125 v -11.2813 h 41.1484 v -11.5176 z m -582.1153,0.08 v 57.1153 h 11.4395 v -19.1446 l 34.2363,-0.08 c 2.1183,0 4.026,-0.5035 5.7207,-1.5097 1.7476,-1.0592 3.1499,-2.4362 4.209,-4.1309 1.0592,-1.7476 1.5898,-3.6534 1.5898,-5.7187 v -15.0938 c 0,-2.0653 -0.5306,-3.9711 -1.5898,-5.7187 -1.0591,-1.7477 -2.4614,-3.1247 -4.209,-4.1309 -1.6947,-1.0591 -3.6024,-1.5879 -5.7207,-1.5879 z m 184.5332,0 v 57.1153 h 11.4375 v -19.1446 l 17.4356,-0.041 16.0879,19.1856 h 12.0742 v -3.5743 l -13.1738,-15.6465 h 1.8144 c 2.1183,0 4.0241,-0.5035 5.7188,-1.5097 1.7476,-1.0592 3.1517,-2.4362 4.2109,-4.1309 1.0591,-1.7476 1.5879,-3.6534 1.5879,-5.7187 v -15.0938 c 0,-2.0653 -0.5288,-3.9711 -1.5879,-5.7187 -1.0592,-1.7477 -2.4633,-3.1247 -4.2109,-4.1309 -1.6947,-1.0591 -3.6005,-1.5879 -5.7188,-1.5879 z m 273.7403,0 v 57.1153 h 11.4375 v -19.1446 l 34.2382,-0.08 c 2.1184,0 4.0242,-0.5035 5.7188,-1.5097 1.7477,-1.0592 3.1518,-2.4362 4.2109,-4.1309 1.0592,-1.7476 1.5879,-3.6534 1.5879,-5.7187 v -15.0938 c 0,-2.0653 -0.5287,-3.9711 -1.5879,-5.7187 -1.0591,-1.7477 -2.4632,-3.1247 -4.2109,-4.1309 -1.6946,-1.0591 -3.6004,-1.5879 -5.7188,-1.5879 z m 184.5312,0 v 57.1153 h 11.4395 v -19.1446 l 17.4336,-0.041 16.0878,19.1856 h 12.0762 v -3.5743 l -13.1758,-15.6465 h 1.8164 c 2.1184,0 4.0241,-0.5035 5.7188,-1.5097 1.7476,-1.0592 3.1498,-2.4362 4.209,-4.1309 1.0592,-1.7476 1.5898,-3.6534 1.5898,-5.7187 v -15.0938 c 0,-2.0653 -0.5306,-3.9711 -1.5898,-5.7187 -1.0592,-1.7477 -2.4614,-3.1247 -4.209,-4.1309 -1.6947,-1.0591 -3.6004,-1.5879 -5.7188,-1.5879 z m -279.6191,11.4375 h 33.205 c 0.1592,0 0.2657,0.054 0.3184,0.1602 0.1059,0.053 0.1582,0.1575 0.1582,0.3164 v 33.2051 c 0,0.1588 -0.052,0.2906 -0.1582,0.3964 -0.053,0.053 -0.1595,0.08 -0.3184,0.08 h -33.205 c -0.1589,0 -0.2906,-0.027 -0.3965,-0.08 -0.053,-0.1058 -0.078,-0.2376 -0.078,-0.3964 v -33.2051 c 0,-0.1592 0.025,-0.2638 0.078,-0.3164 0.1059,-0.106 0.2376,-0.1602 0.3965,-0.1602 z m -351.2696,0 h 33.2032 c 0.1585,0 0.265,0.052 0.3183,0.1582 0.106,0.053 0.1602,0.1595 0.1602,0.3183 v 14.0606 c 0,0.1059 -0.054,0.2105 -0.1602,0.3164 -0.053,0.053 -0.1595,0.08 -0.3183,0.08 h -33.2032 c -0.1588,0 -0.2925,-0.027 -0.3984,-0.08 -0.053,-0.1059 -0.078,-0.2105 -0.078,-0.3164 v -14.0606 c 0,-0.1591 0.025,-0.2657 0.078,-0.3183 0.1059,-0.106 0.2396,-0.1582 0.3984,-0.1582 z m 184.5313,0 h 33.2051 c 0.1591,0 0.2657,0.052 0.3183,0.1582 0.106,0.053 0.1582,0.1595 0.1582,0.3183 v 14.0606 c 0,0.1059 -0.052,0.2105 -0.1582,0.3164 -0.053,0.053 -0.1595,0.08 -0.3183,0.08 h -33.2051 c -0.1589,0 -0.2906,-0.027 -0.3965,-0.08 -0.053,-0.1059 -0.08,-0.2105 -0.08,-0.3164 v -14.0606 c 0,-0.1591 0.027,-0.2657 0.08,-0.3183 0.1059,-0.106 0.2376,-0.1582 0.3965,-0.1582 z m 273.7402,0 h 33.2051 c 0.1585,0 0.265,0.052 0.3184,0.1582 0.1058,0.053 0.1582,0.1595 0.1582,0.3183 v 14.0606 c 0,0.1059 -0.052,0.2105 -0.1582,0.3164 -0.053,0.053 -0.1595,0.08 -0.3184,0.08 h -33.2051 c -0.1588,0 -0.2905,-0.027 -0.3965,-0.08 -0.053,-0.1059 -0.078,-0.2105 -0.078,-0.3164 v -14.0606 c 0,-0.1591 0.025,-0.2657 0.078,-0.3183 0.106,-0.106 0.2377,-0.1582 0.3965,-0.1582 z m 184.5332,0 H -1252 c 0.1592,0 0.2657,0.052 0.3184,0.1582 0.1059,0.053 0.1582,0.1595 0.1582,0.3183 v 14.0606 c 0,0.1059 -0.052,0.2105 -0.1582,0.3164 -0.053,0.053 -0.1595,0.08 -0.3184,0.08 h -33.2051 c -0.1588,0 -0.2906,-0.027 -0.3965,-0.08 -0.053,-0.1059 -0.08,-0.2105 -0.08,-0.3164 v -14.0606 c 0,-0.1591 0.027,-0.2657 0.08,-0.3183 0.1059,-0.106 0.2377,-0.1582 0.3965,-0.1582 z m -404.414,16.5215 v 11.3593 h 32.8066 v -11.3593 z m 167.1347,0 v 11.3593 h 32.8086 v -11.3593 z m -146.7109,-134.1313 v 80.2383 h 80.1269 v -16.1367 h -64.1015 v -64.1016 z m -178.1719,0.1114 v 80.1269 h 73.8945 v -16.1367 h -57.6464 v -15.8027 h 46.4062 v -16.2481 h -46.4062 v -15.8027 h 57.6464 v -16.1367 z m 101.2715,0 c -2.9677,0 -5.6747,0.7427 -8.1231,2.2265 -2.3741,1.4096 -4.3032,3.3369 -5.7871,5.7852 -1.4096,2.3742 -2.1152,5.046 -2.1152,8.0137 v 64.1015 h 16.0254 v -26.375 h 47.8535 v 26.375 h 16.2481 v -64.1015 c 0,-2.9677 -0.7408,-5.6395 -2.2247,-8.0137 -1.4837,-2.4483 -3.4501,-4.3756 -5.8984,-5.7852 -2.3741,-1.4838 -5.0459,-2.2265 -8.0137,-2.2265 z m 217.0117,0 v 16.1367 h 32.0508 v 63.9902 h 16.1367 v -63.9902 h 31.9395 v -16.1367 z m 86.2481,0 v 80.1269 h 15.914 v -80.1269 z m 26.041,0 v 80.1269 h 16.0254 v -56.0898 l 29.0468,34.5 28.9356,-34.6113 v 56.2011 h 16.1367 v -80.1269 h -17.1387 l -27.9336,33.498 -28.0449,-33.498 z m 103.498,0 v 80.1269 h 73.8965 v -16.1367 h -57.6484 v -15.8027 h 46.4082 v -16.2481 h -46.4082 v -15.8027 h 57.6484 v -16.1367 z m -626.1054,0.1113 v 80.0156 h 16.0253 v -26.8203 l 24.4239,-0.057 22.539,26.8769 h 16.9161 v -5.0078 l -18.4551,-21.918 2.541,-0.01 c 2.9677,0 5.6376,-0.7056 8.0117,-2.1153 2.4483,-1.4838 4.4146,-3.411 5.8984,-5.7851 1.4838,-2.4483 2.2266,-5.1202 2.2266,-8.0137 v -21.1445 c 0,-2.8935 -0.7428,-5.5653 -2.2266,-8.0137 -1.4838,-2.4483 -3.4501,-4.3755 -5.8984,-5.7851 -2.3741,-1.4839 -5.044,-2.2266 -8.0117,-2.2266 z m 16.6933,16.0254 h 46.5176 c 0.2225,0 0.3711,0.074 0.4453,0.2226 0.1484,0.074 0.2227,0.2228 0.2227,0.4454 v 19.6972 c 0,0.1484 -0.074,0.2969 -0.2227,0.4453 -0.074,0.074 -0.2228,0.1114 -0.4453,0.1114 h -46.5176 c -0.2226,0 -0.4082,-0.037 -0.5566,-0.1114 -0.074,-0.1484 -0.1114,-0.2969 -0.1114,-0.4453 v -19.6972 c 0,-0.2226 0.037,-0.3712 0.1114,-0.4454 0.1484,-0.1483 0.334,-0.2226 0.5566,-0.2226 z m 177.2813,0 h 46.5175 c 0.2226,0 0.3712,0.074 0.4454,0.2226 0.1484,0.074 0.2226,0.2228 0.2226,0.4454 v 20.9218 h -47.8535 v -20.9218 c 0,-0.2226 0.037,-0.3712 0.1113,-0.4454 0.1484,-0.1483 0.3341,-0.2226 0.5567,-0.2226 z m 163.1484,23.1484 v 15.9141 h 45.9609 v -15.9141 z m -289.8202,200.0346 q -2.7938,0 -5.0988,-1.3271 -2.235,-1.3969 -3.632,-3.632 -1.327,-2.3049 -1.327,-5.0988 v -40.2315 h 10.0578 v 39.7426 q 0,0.2095 0.07,0.3492 0.1397,0.07 0.3492,0.07 h 29.1958 q 0.2095,0 0.2793,-0.07 0.1397,-0.1397 0.1397,-0.3492 v -39.7426 h 10.1976 v 40.2315 q 0,2.7939 -1.3969,5.0988 -1.397,2.2351 -3.7019,3.632 -2.2351,1.3271 -4.9591,1.3271 h -30.1736 z m 65.5158,0 v 0 -40.1617 h -20.1157 v -10.1277 h 50.2893 v 10.1277 h -20.0459 v 40.1617 z m 35.482,0 v -50.2894 h 10.0578 v 20.0459 h 31.2213 v -20.0459 h 10.0579 v 50.2894 h -10.0579 v -20.0459 h -31.2213 v 20.0459 z m 59.509,0 v -50.2894 h 46.3779 v 10.1277 h -36.1804 v 9.9182 h 29.126 v 10.1976 h -29.126 v 9.9182 h 36.1804 v 10.1277 z m 53.3626,0 v -50.2894 h 10.6865 l 29.4053,35.0629 v -35.0629 h 10.1976 v 50.2894 h -10.6865 l -29.545,-35.2026 v 35.2026 z m 75.7135,0 v 0 -40.1617 h -20.1158 v -10.1277 h 50.2894 v 10.1277 h -20.0459 v 40.1617 z m 34.0152,0 v -50.2894 h 9.988 v 50.2894 z m 26.4019,0 q -2.7938,0 -5.0988,-1.3271 -2.2351,-1.3969 -3.632,-3.632 -1.3271,-2.3049 -1.3271,-5.0988 v -30.1736 q 0,-2.7939 1.3271,-5.0289 1.3969,-2.305 3.632,-3.632 2.305,-1.397 5.0988,-1.397 h 40.0918 v 10.1277 h -37.717 q -1.1176,0 -1.7462,0.6287 -0.6286,0.5587 -0.6286,1.7461 v 25.2844 q 0,1.1175 0.6286,1.7461 0.6286,0.6287 1.7462,0.6287 h 37.717 v 10.1277 z m 47.4955,0 v -40.2315 q 0,-2.7939 1.3271,-5.0289 1.3969,-2.305 3.632,-3.632 2.3049,-1.397 5.0988,-1.397 h 30.1038 q 2.7938,0 5.0289,1.397 2.3049,1.327 3.7018,3.632 1.397,2.235 1.397,5.0289 v 40.2315 h -10.1976 v -16.5536 h -30.0339 v 16.5536 z m 10.0579,-26.6115 h 30.0339 v -13.1311 q 0,-0.2095 -0.1397,-0.2794 -0.07,-0.1397 -0.2794,-0.1397 h -29.1957 q -0.2096,0 -0.3493,0.1397 -0.07,0.07 -0.07,0.2794 v 13.1311 z m 65.7952,26.6115 v 0 -40.1617 h -20.1157 v -10.1277 h 50.2893 v 10.1277 h -20.0458 v 40.1617 z m 34.0152,0 v -50.2894 h 9.988 v 50.2894 z m 26.2623,0 q -2.7939,0 -5.0988,-1.3271 -2.2351,-1.3969 -3.632,-3.632 -1.3271,-2.3049 -1.3271,-5.0988 v -30.1736 q 0,-2.7939 1.3271,-5.0289 1.3969,-2.305 3.632,-3.632 2.3049,-1.397 5.0988,-1.397 h 30.1736 q 2.724,0 4.959,1.397 2.305,1.327 3.7019,3.632 1.3969,2.235 1.3969,5.0289 v 30.1736 q 0,2.7939 -1.3969,5.0988 -1.3969,2.2351 -3.7019,3.632 -2.235,1.3271 -4.959,1.3271 z m 0.419,-10.1277 h 29.1958 q 0.2095,0 0.2794,-0.07 0.1397,-0.1397 0.1397,-0.3492 v -29.1958 q 0,-0.2095 -0.1397,-0.2794 -0.07,-0.1397 -0.2794,-0.1397 h -29.1958 q -0.2095,0 -0.3492,0.1397 -0.07,0.07 -0.07,0.2794 v 29.1958 q 0,0.2095 0.07,0.3492 0.1397,0.07 0.3492,0.07 z m 47.4955,10.1277 v -50.2894 h 10.6865 l 29.4053,35.0629 v -35.0629 h 10.1975 v 50.2894 h -10.6865 l -29.5449,-35.2026 v 35.2026 z m -649.7106,0 v -40.2315 q 0,-2.7939 1.3271,-5.0289 1.3969,-2.305 3.632,-3.632 2.3049,-1.397 5.0988,-1.397 h 30.1037 q 2.7939,0 5.029,1.397 2.3049,1.327 3.7018,3.632 1.3969,2.235 1.3969,5.0289 v 40.2315 h -10.1975 v -16.5536 h -30.0339 v 16.5536 z m 10.0579,-26.6115 h 30.0339 v -13.1311 q 0,-0.2095 -0.1397,-0.2794 -0.07,-0.1397 -0.2794,-0.1397 h -29.1958 q -0.2095,0 -0.3492,0.1397 -0.07,0.07 -0.07,0.2794 v 13.1311 z" />
  </g>
</svg>
