<?xml version="1.0" encoding="UTF-8" standalone="no"?>
<svg
   viewBox="0 0 423.96257 109.8284"
   version="1.1"
   id="vero-logo"
   width="423.96255"
   height="109.8284"
   xmlns="http://www.w3.org/2000/svg"
   xmlns:svg="http://www.w3.org/2000/svg">
  <style>
    .logo-symbol { fill: var(--primary-color, #3399ff); }
    .logo-text { fill: var(--text-color, #ffffff); }
  </style>
  <defs
     id="defs1" />
  <path
     id="0-path"
     class="logo-symbol"
     d="m 331.64192,3.2071 c -7.09394,0.063 -14.85458,7.7036 -14.89648,16.5235 l 0.1777,75.3164 c -0.1777,8.9533 8.14072,14.24 15.67774,14.1894 l 75.20117,0.039 c 8.45904,0.011 16.19675,-7.5287 16.15039,-15.8281 l 0.01,-73.9629 C 423.99654,9.8739 415.99935,3.2879 409.08354,3.207 H 370.36283 Z M 409.28059,15.836 C 381.19906,38.883 330.86222,80.4054 329.56184,81.4845 V 19.9337 c 0.009,-1.9635 1.26376,-3.8512 3.63282,-3.9258 z m 2.19141,14.5703 0.006,61.5565 c 0.0201,2.705 -1.59649,4.6732 -4.31641,4.6838 l -76.06445,0.1738 c 4.3008,-3.2995 79.29223,-65.5134 80.37486,-66.4141 z" />
  <path
     id="text-path"
     class="logo-text"
     d="m 0,0 64.123,109.7864 17.7629,0.042 L 145.2483,4e-4 H 120.4735 L 72.8671,84.0404 23.5284,0.042 Z m 157.2415,23.6876 c -8.3184,-0.001 -16.6368,8.1596 -16.6367,16.3203 l -0.1836,50.6543 c 0,9.6214 8.3658,18.5587 17.4609,18.5898 l 69.59966,0.035 V 89.4491 L 160.763,89.287 c -0.059,-4.2135 -0.1165,-8.427 -0.1738,-12.6406 h 66.89259 V 40.9413 c 0,-8.6297 -8.23926,-17.2595 -16.47852,-17.2539 z m 3.3614,19.9961 46.87887,0.164 c 0.0594,4.2128 0.11654,8.4257 0.1738,12.6386 H 160.6028 Z m 78.07949,-2.5252 c 0,-8.8231 9.36,-17.6462 18.72,-17.6461 l 49.28,0.1746 v 19.84 l -48.16,0.164 v 65.596 h -19.84 z" />
</svg>
